<svg width="157" height="63" viewBox="0 0 157 63" fill="none" xmlns="http://www.w3.org/2000/svg">
<g filter="url(#filter0_d_1_6)">
<path d="M14.2446 28.3687C14.2446 20.0744 19.6204 13.9438 27.6243 13.9438C33.9557 13.9438 39.0926 17.7905 39.0926 21.6371C39.0926 23.2599 38.0174 24.3418 36.2255 24.3418C31.8652 24.3418 32.0444 16.4081 26.3102 16.4081C23.0848 16.4081 20.158 19.5936 20.158 24.7024C20.158 32.7563 24.8767 38.0454 29.7746 38.0454C33.8363 38.0454 36.1658 35.1003 37.4201 32.9366C38.0772 32.0951 39.5107 32.3356 39.3315 33.5977C38.9134 38.7065 35.2101 43.5148 27.9827 43.5148C20.3372 43.5148 14.2446 36.1822 14.2446 28.3687Z" fill="#FBFAF7"/>
<path d="M41.3027 42.4332V42.2529C41.3027 41.2311 42.8557 40.9306 42.8557 39.1876V19.2332C42.8557 17.4301 41.3027 17.0094 41.3027 16.1679V15.9876C41.3027 15.5669 41.6014 15.3866 42.0792 15.1462L47.1563 12.6218C48.2315 12.0809 48.8288 12.6819 48.8288 13.3431V39.1275C48.8288 40.8104 50.561 41.171 50.561 42.1928V42.3731C50.561 42.7938 50.1429 43.0944 49.6053 43.0944H42.2584C41.6611 43.0944 41.3027 42.8539 41.3027 42.4332Z" fill="#FBFAF7"/>
<path d="M70.5706 37.3846C70.3317 39.7287 67.5841 43.5152 62.3875 43.5152C56.7728 43.5152 52.6514 39.4282 52.6514 33.1774C52.532 27.8282 56.7131 23.3204 62.0889 23.2002C62.2083 23.2002 62.3278 23.2002 62.3875 23.2002C67.6438 23.2002 70.033 26.2655 70.033 28.9701C70.0928 30.1722 69.376 31.2541 68.2411 31.6748L59.2815 35.7619C60.1775 37.9256 62.2681 39.308 64.5976 39.308C66.4492 39.3681 68.1814 38.4665 69.1968 36.9639C69.6747 36.3629 70.5706 36.5432 70.5706 37.3846ZM58.2064 30.4126C58.2064 31.6147 58.3258 32.7567 58.6245 33.8986L63.8211 31.2541C64.5378 30.8935 64.9559 30.1121 64.8962 29.3308C64.8962 27.8883 63.8211 25.0033 61.6707 25.0033C59.5204 25.0033 58.2064 27.3473 58.2064 30.4126Z" fill="#FBFAF7"/>
<path d="M88.6094 26.9262C88.6094 28.6091 87.9523 30.1117 86.0409 30.1117C82.8752 30.1117 84.3088 26.6257 82.0987 26.6257C80.5457 26.6257 79.9484 28.8495 79.9484 31.0733V39.1873C79.9484 40.8702 81.9793 41.2309 81.9793 42.2526V42.4329C81.9793 42.9137 81.6209 43.1542 81.0833 43.1542H73.6767C73.0794 43.1542 72.721 42.9137 72.721 42.4329V42.2526C72.721 41.2309 74.274 40.9303 74.274 39.1873V29.7511C74.274 27.9479 72.4224 27.8277 72.4224 26.806V26.6257C72.4224 26.2049 72.721 25.9044 73.2586 25.664L78.0968 23.3801C78.9927 22.9593 79.4109 23.4402 79.4109 24.2215V27.2868C80.3068 24.7024 82.2182 23.2599 84.9061 23.2599C86.8174 23.1397 88.4899 24.6422 88.6094 26.5656C88.6094 26.6858 88.6094 26.806 88.6094 26.9262Z" fill="#FBFAF7"/>
<path d="M112.263 42.313V42.4332C112.263 42.914 111.964 43.1544 111.427 43.1544H103.901C103.483 43.2145 103.124 42.914 103.124 42.4933V42.4332V42.3731C103.124 41.3513 104.617 41.1109 103.96 40.1492L99.6 33.9586L97.2108 36.1824V39.2477C97.2108 40.9306 98.943 41.2912 98.943 42.313V42.4933C98.943 42.914 98.5846 43.2145 97.9873 43.2145H90.5807C90.0431 43.2145 89.6847 42.914 89.6847 42.4933V42.313C89.6847 41.2912 91.2377 40.9907 91.2377 39.2477V19.2332C91.2377 17.4301 89.4458 17.0093 89.4458 16.1679V15.9876C89.4458 15.5668 89.7445 15.3865 90.282 15.1461L95.6578 12.6218C96.6135 12.1409 97.2705 12.6819 97.2705 13.343V33.057L103.662 27.5275C104.856 26.5057 102.706 25.4839 102.706 24.5223V24.342C102.706 23.9213 103.005 23.6207 103.542 23.6207H109.276C109.754 23.6207 110.113 23.8612 110.113 24.2819V24.4622C110.113 25.4839 108.142 26.1451 106.648 27.4674L103.363 30.5327L110.113 40.0891C110.77 40.9907 112.263 41.3513 112.263 42.313Z" fill="#FBFAF7"/>
<path d="M112.263 38.767C112.263 37.2043 113.338 36.5432 114.652 36.5432C118.176 36.5432 116.802 41.8924 120.864 41.8924C122.536 41.8924 123.791 41.051 123.791 39.1878C123.791 33.7784 112.561 37.1442 112.561 29.1505C112.561 25.7245 115.906 23.2002 120.744 23.2002C125.822 23.2002 129.047 25.5442 129.047 28.0686C128.987 29.2707 127.972 30.2323 126.837 30.1722C123.492 30.1722 124.687 24.8831 121.163 24.8831C119.729 24.823 118.534 25.965 118.534 27.4074C118.534 27.4676 118.534 27.5277 118.534 27.5878C118.534 33.1173 129.525 29.8717 129.525 37.6251C129.525 40.9308 126.299 43.4551 120.924 43.4551C115.667 43.4551 112.263 41.2914 112.263 38.767Z" fill="#FBFAF7"/>
<path d="M152.342 24.2821V24.4624C152.342 25.4842 151.088 25.8448 150.311 27.6479L142.666 44.3567C141.352 47.2417 138.007 54.394 133.826 54.394C130.182 54.394 127.912 52.1702 127.912 50.0665C127.853 48.8044 128.808 47.7225 130.063 47.6624C130.182 47.6624 130.242 47.6624 130.361 47.6624C133.646 47.6624 132.631 52.5308 134.722 52.5308C136.155 52.5308 139.022 47.0613 140.157 44.2966L132.093 27.6479C131.198 25.8448 129.943 25.4842 129.943 24.4624V24.2821C129.943 23.8614 130.302 23.6209 130.779 23.6209H138.305C138.664 23.5608 139.022 23.8614 139.082 24.2821V24.3422V24.5225C139.082 25.5443 137.589 25.6645 138.485 27.7681L143.203 38.7671L147.564 28.3691C148.639 25.8448 145.772 25.5443 145.772 24.5826V24.4023C145.772 23.9816 146.07 23.681 146.608 23.681H151.506C151.984 23.6209 152.342 23.9215 152.342 24.2821Z" fill="#FBFAF7"/>
<path d="M8.33156 25.6642C8.3913 25.7243 8.33156 25.8445 8.27183 25.9046C8.2121 25.9647 8.09264 25.9046 8.03291 25.8445C6.8383 24.1616 4.5088 20.0145 4.688 13.1026C4.688 11.059 5.10611 9.01551 5.88261 7.09219C6.53965 5.5295 8.33156 2.94504 10.3624 3.78649C12.3932 4.62794 9.58591 7.75333 8.9886 8.65488C5.52422 13.8839 6.36045 20.0746 8.33156 25.6642Z" fill="#FDBC4E"/>
<path d="M9.46655 22.4789C9.46655 22.539 9.40682 22.539 9.34709 22.539C9.28736 22.539 9.28736 22.4789 9.28736 22.4789C9.04844 20.0146 8.92897 14.6053 11.1987 9.85709C12.2739 7.51305 13.9463 5.46953 16.0369 3.96694C16.8134 3.42601 17.7094 3.12549 18.6651 3.12549C19.8 3.2457 20.6959 4.26746 20.1583 5.40943C19.3221 7.15243 17.0523 7.39285 15.6188 8.47471C13.7672 9.8571 12.4531 11.9607 11.5571 14.0643C10.482 16.7089 9.7652 19.5939 9.46655 22.4789Z" fill="#FDBC4E"/>
<path d="M11.7363 21.2165C11.7363 20.7357 11.7961 20.2549 11.9155 19.8341C12.3934 18.1512 13.0504 16.5284 13.9464 15.0258C16.3356 10.9989 19.8 7.45278 24.3992 6.37092C25.773 6.0103 30.2528 6.0103 28.8193 8.65486C27.8636 10.3378 25.116 9.61651 23.563 9.91703C20.5765 10.5181 18.1872 12.3813 16.0967 14.4849C13.8269 16.8289 11.8558 21.2766 11.7363 21.2165Z" fill="#FDBC4E"/>
</g>
<defs>
<filter id="filter0_d_1_6" x="-2" y="0" width="161" height="66" filterUnits="userSpaceOnUse" color-interpolation-filters="sRGB">
<feFlood flood-opacity="0" result="BackgroundImageFix"/>
<feColorMatrix in="SourceAlpha" type="matrix" values="0 0 0 0 0 0 0 0 0 0 0 0 0 0 0 0 0 0 127 0" result="hardAlpha"/>
<feOffset dy="4"/>
<feGaussianBlur stdDeviation="2"/>
<feComposite in2="hardAlpha" operator="out"/>
<feColorMatrix type="matrix" values="0 0 0 0 0 0 0 0 0 0 0 0 0 0 0 0 0 0 0.25 0"/>
<feBlend mode="normal" in2="BackgroundImageFix" result="effect1_dropShadow_1_6"/>
<feBlend mode="normal" in="SourceGraphic" in2="effect1_dropShadow_1_6" result="shape"/>
</filter>
</defs>
</svg>
